<?xml version="1.0" encoding="UTF-8"?>
<svg width="600" height="400" viewBox="0 0 600 400" xmlns="http://www.w3.org/2000/svg">
  <!-- Background gradient -->
  <defs>
    <linearGradient id="bgGradient" x1="0%" y1="0%" x2="100%" y2="100%">
      <stop offset="0%" stop-color="#4F46E5" stop-opacity="0.1"/>
      <stop offset="100%" stop-color="#3B82F6" stop-opacity="0.3"/>
    </linearGradient>
    
    <!-- Washing machine -->
    <filter id="shadow" x="-20%" y="-20%" width="140%" height="140%">
      <feGaussianBlur in="SourceAlpha" stdDeviation="3" result="blur"/>
      <feOffset in="blur" dx="2" dy="2" result="offsetBlur"/>
      <feComposite in="SourceGraphic" in2="offsetBlur" operator="over"/>
    </filter>
  </defs>
  
  <!-- Background shape -->
  <rect width="600" height="400" rx="20" fill="url(#bgGradient)"/>
  
  <!-- Washing machine -->
  <g filter="url(#shadow)" transform="translate(100, 100)">
    <rect x="0" y="0" width="180" height="200" rx="10" fill="#f5f5f5" stroke="#ddd" stroke-width="2"/>
    <circle cx="90" cy="80" r="60" fill="#fff" stroke="#ddd" stroke-width="2"/>
    <circle cx="90" cy="80" r="55" fill="none" stroke="#e0e0e0" stroke-width="1" stroke-dasharray="5,5"/>
    
    <!-- Rotating clothes animation -->
    <g>
      <circle cx="90" cy="80" r="52" fill="none" stroke="#3B82F6" stroke-width="2" stroke-dasharray="10,15">
        <animateTransform 
          attributeName="transform"
          type="rotate"
          from="0 90 80"
          to="360 90 80"
          dur="8s"
          repeatCount="indefinite"/>
      </circle>
      
      <!-- Clothes -->
      <g>
        <path d="M70,60 Q90,40 110,60 L110,90 Q90,110 70,90 Z" fill="#9AC5F4" opacity="0.8">
          <animateTransform 
            attributeName="transform"
            type="rotate"
            from="0 90 80"
            to="360 90 80"
            dur="8s"
            repeatCount="indefinite"/>
        </path>
        <path d="M80,100 Q90,80 100,100 L100,110 Q90,130 80,110 Z" fill="#FFB6C1" opacity="0.6">
          <animateTransform 
            attributeName="transform"
            type="rotate"
            from="40 90 80"
            to="400 90 80"
            dur="8s"
            repeatCount="indefinite"/>
        </path>
        <path d="M65,70 Q75,60 85,70 L85,85 Q75,95 65,85 Z" fill="#FFFFE0" opacity="0.7">
          <animateTransform 
            attributeName="transform"
            type="rotate"
            from="120 90 80"
            to="480 90 80"
            dur="8s"
            repeatCount="indefinite"/>
        </path>
      </g>
    </g>
    
    <!-- Soap bubbles animation -->
    <g>
      <circle cx="50" cy="50" r="5" fill="#fff" opacity="0.6">
        <animate attributeName="cy" from="100" to="30" dur="4s" repeatCount="indefinite"/>
        <animate attributeName="opacity" from="0.8" to="0" dur="4s" repeatCount="indefinite"/>
      </circle>
      <circle cx="100" cy="60" r="4" fill="#fff" opacity="0.6">
        <animate attributeName="cy" from="90" to="20" dur="3.5s" repeatCount="indefinite"/>
        <animate attributeName="opacity" from="0.8" to="0" dur="3.5s" repeatCount="indefinite"/>
      </circle>
      <circle cx="130" cy="80" r="3" fill="#fff" opacity="0.6">
        <animate attributeName="cy" from="110" to="40" dur="4.2s" repeatCount="indefinite"/>
        <animate attributeName="opacity" from="0.8" to="0" dur="4.2s" repeatCount="indefinite"/>
      </circle>
    </g>
    
    <!-- Controls -->
    <rect x="60" y="160" width="60" height="10" rx="5" fill="#ddd"/>
    <circle cx="50" cy="165" r="5" fill="#3B82F6"/>
    <circle cx="140" cy="165" r="8" fill="#f5f5f5" stroke="#ddd"/>
    <circle cx="140" cy="165" r="3" fill="#3B82F6"/>
  </g>
  
  <!-- Hanging clothes -->
  <g transform="translate(320, 80)">
    <!-- Clothes line -->
    <line x1="0" y1="20" x2="200" y2="20" stroke="#555" stroke-width="3"/>
    <line x1="20" y1="0" x2="20" y2="20" stroke="#555" stroke-width="3"/>
    <line x1="180" y1="0" x2="180" y2="20" stroke="#555" stroke-width="3"/>
    
    <!-- Hanging shirts -->
    <g>
      <path d="M50,20 L60,40 L80,40 L90,20" stroke="#3B82F6" stroke-width="2" fill="#9AC5F4">
        <animate attributeName="transform" values="translate(0,0); translate(0,3); translate(0,0)" dur="3s" repeatCount="indefinite"/>
      </path>
      <path d="M50,20 L50,80 C50,90 90,90 90,80 L90,20" stroke="#3B82F6" stroke-width="2" fill="#9AC5F4">
        <animate attributeName="transform" values="translate(0,0); translate(0,3); translate(0,0)" dur="3s" repeatCount="indefinite"/>
      </path>
      <line x1="65" y1="20" x2="65" y2="40" stroke="#3B82F6" stroke-width="1">
        <animate attributeName="transform" values="translate(0,0); translate(0,3); translate(0,0)" dur="3s" repeatCount="indefinite"/>
      </line>
      <line x1="75" y1="20" x2="75" y2="40" stroke="#3B82F6" stroke-width="1">
        <animate attributeName="transform" values="translate(0,0); translate(0,3); translate(0,0)" dur="3s" repeatCount="indefinite"/>
      </line>
    </g>
    
    <!-- Another hanging item -->
    <g>
      <path d="M120,20 C120,25 130,30 140,20 C150,30 160,25 160,20" stroke="#FFB6C1" stroke-width="2" fill="none">
        <animate attributeName="transform" values="translate(0,0); translate(0,2); translate(0,0)" dur="4s" repeatCount="indefinite"/>
      </path>
      <path d="M120,20 L120,90 C120,100 160,100 160,90 L160,20" stroke="#FFB6C1" stroke-width="2" fill="#FFCCCB">
        <animate attributeName="transform" values="translate(0,0); translate(0,2); translate(0,0)" dur="4s" repeatCount="indefinite"/>
      </path>
    </g>
  </g>
  
  <!-- Water droplets -->
  <g>
    <path d="M140,260 Q150,280 160,260" stroke="#3B82F6" stroke-width="2" fill="none" opacity="0.6">
      <animate attributeName="opacity" values="0.6;0;0.6" dur="2s" begin="0.2s" repeatCount="indefinite"/>
    </path>
    <path d="M110,280 Q120,300 130,280" stroke="#3B82F6" stroke-width="2" fill="none" opacity="0.6">
      <animate attributeName="opacity" values="0.6;0;0.6" dur="2s" begin="0.5s" repeatCount="indefinite"/>
    </path>
    <path d="M170,290 Q180,310 190,290" stroke="#3B82F6" stroke-width="2" fill="none" opacity="0.6">
      <animate attributeName="opacity" values="0.6;0;0.6" dur="2s" begin="0.8s" repeatCount="indefinite"/>
    </path>
  </g>
  
  <!-- Basket with cleaned clothes -->
  <g transform="translate(400, 250)">
    <path d="M10,30 C0,20 0,0 50,0 C100,0 100,20 90,30 Z" fill="#FFFFE0" stroke="#ddd" stroke-width="2"/>
    <path d="M10,30 C10,60 90,60 90,30" fill="none" stroke="#ddd" stroke-width="2"/>
    
    <!-- Folded clothes in basket -->
    <rect x="20" y="10" width="30" height="20" fill="#9AC5F4" stroke="#3B82F6" stroke-width="1"/>
    <rect x="25" y="5" width="30" height="20" fill="#FFB6C1" stroke="#FFB6C1" stroke-width="1"/>
    <rect x="40" y="15" width="25" height="15" fill="#98FB98" stroke="#98FB98" stroke-width="1"/>
  </g>
</svg> 